<svg xmlns="http://www.w3.org/2000/svg" width="41.89" height="38.5" viewBox="0 0 41.89 38.5">
  <g id="Group_107" data-name="Group 107" transform="translate(-857 -1108.962)">
    <g id="Group_98" data-name="Group 98" transform="translate(856.219 1108.962)">
      <path id="Path_824" data-name="Path 824" d="M21.726,2.406A7.8,7.8,0,0,1,25.605,3.42a6.308,6.308,0,0,1,2.571,2.7,5.247,5.247,0,0,1,.4,3.476,5.812,5.812,0,0,1-1.911,3.08,7.389,7.389,0,0,1-3.575,1.646,8.029,8.029,0,0,1-4.034-.342,6.862,6.862,0,0,1-3.133-2.216,5.443,5.443,0,0,1-1.177-3.342,5.627,5.627,0,0,1,2.045-4.254A7.588,7.588,0,0,1,21.726,2.406Zm0-2.406A10.923,10.923,0,0,0,16.3,1.419,8.831,8.831,0,0,0,12.7,5.2a7.346,7.346,0,0,0-.556,4.866,8.137,8.137,0,0,0,2.675,4.312,10.344,10.344,0,0,0,5,2.3,11.241,11.241,0,0,0,5.647-.479,9.606,9.606,0,0,0,4.387-3.1A7.62,7.62,0,0,0,31.5,8.422a7.878,7.878,0,0,0-2.863-5.955A10.624,10.624,0,0,0,21.726,0Zm2.43,36.178-1.969,1.708L20.2,36.178l-.1-.084H3.574A14.919,14.919,0,0,1,9.36,25.8a19.858,19.858,0,0,1,12.366-4.148,20.458,20.458,0,0,1,6.311,1l2.15-1.853a23.519,23.519,0,0,0-8.462-1.552,22.766,22.766,0,0,0-14.81,5.286A16.882,16.882,0,0,0,.781,37.3v1.2H32.9V36.094H24.268ZM35.089,26.77A14.528,14.528,0,0,1,39.878,37.3v1.2h2.793V37.3a16.706,16.706,0,0,0-5.585-12.236Z"/>
      <path id="Path_825" data-name="Path 825" d="M12.758,22.406,8.047,17.7l1.109-1.1,3.6,3.6L22.7,10.25l1.109,1.1Z" transform="translate(18.452 13.5)"/>
    </g>
  </g>
</svg>
