<svg xmlns="http://www.w3.org/2000/svg" width="123.75" height="24.667" viewBox="0 0 123.75 24.667">
  <g id="Group_30" data-name="Group 30" transform="translate(-607.5 -4535)">
    <path id="Icon_awesome-instagram" data-name="Icon awesome-instagram" d="M11,20.9c-3.121,0-5.639-2.824-5.639-6.324S7.876,8.247,11,8.247s5.639,2.824,5.639,6.324S14.119,20.9,11,20.9Zm0-10.436a3.915,3.915,0,0,0-3.666,4.112A3.912,3.912,0,0,0,11,18.683a3.912,3.912,0,0,0,3.666-4.112A3.915,3.915,0,0,0,11,10.459Zm7.185,10.695a1.324,1.324,0,1,0-1.315,1.475A1.4,1.4,0,0,0,18.182,21.154Zm3.735-1.5a7.814,7.814,0,0,1-1.777,5.168,6.176,6.176,0,0,1-4.609,1.993c-1.816.116-7.259.116-9.075,0a6.166,6.166,0,0,1-4.609-1.987A7.84,7.84,0,0,1,.072,19.662c-.1-2.037-.1-8.141,0-10.177A7.814,7.814,0,0,1,1.849,4.317,6.184,6.184,0,0,1,6.457,2.324c1.816-.116,7.259-.116,9.075,0a6.136,6.136,0,0,1,4.609,1.993,7.866,7.866,0,0,1,1.777,5.168c.1,2.037.1,8.135,0,10.172ZM19.571,7.3a3.966,3.966,0,0,0-2.091-2.345c-1.448-.644-4.883-.5-6.483-.5s-5.04-.143-6.483.5A3.965,3.965,0,0,0,2.423,7.3c-.574,1.624-.442,5.477-.442,7.271s-.128,5.653.442,7.271a3.966,3.966,0,0,0,2.091,2.345c1.448.644,4.883.5,6.483.5s5.04.143,6.483-.5a3.965,3.965,0,0,0,2.091-2.345c.574-1.624.442-5.477.442-7.271S20.146,8.918,19.571,7.3Z" transform="translate(709.255 4532.763)"/>
    <path id="Icon_awesome-facebook" data-name="Icon awesome-facebook" d="M22.062,12.971c0-6.855-4.811-12.408-10.75-12.408S.562,6.116.562,12.971c0,6.193,3.931,11.327,9.07,12.258V16.558H6.9V12.971H9.633V10.237c0-3.11,1.6-4.827,4.06-4.827a14.4,14.4,0,0,1,2.407.242V8.7H14.743c-1.335,0-1.752.957-1.752,1.938v2.329h2.981L15.5,16.558h-2.5v8.671C18.131,24.3,22.062,19.164,22.062,12.971Z" transform="translate(655.688 4534.438)"/>
    <path id="Icon_awesome-whatsapp" data-name="Icon awesome-whatsapp" d="M18.279,5.834A9.938,9.938,0,0,0,10.745,2.25C4.871,2.25.091,7.734.091,14.473a13.653,13.653,0,0,0,1.42,6.112L0,26.917l5.648-1.7A9.565,9.565,0,0,0,10.74,26.7h0c5.869,0,10.754-5.484,10.754-12.223a13.208,13.208,0,0,0-3.22-8.644ZM10.745,24.643a8,8,0,0,1-4.511-1.415l-.322-.22-3.35,1.008.893-3.75-.211-.385a11.252,11.252,0,0,1-1.353-5.407c0-5.6,3.974-10.159,8.859-10.159a8.249,8.249,0,0,1,6.258,2.979A10.972,10.972,0,0,1,19.7,14.479C19.7,20.084,15.625,24.643,10.745,24.643ZM15.6,17.034c-.264-.154-1.574-.892-1.819-.991s-.422-.154-.6.154-.686.991-.845,1.2-.312.231-.576.077A7.645,7.645,0,0,1,8.139,13.84c-.274-.54.274-.5.782-1.668a.639.639,0,0,0-.024-.534c-.067-.154-.6-1.657-.821-2.268-.216-.595-.437-.512-.6-.523s-.331-.011-.509-.011a.934.934,0,0,0-.71.38,3.662,3.662,0,0,0-.931,2.549,6.469,6.469,0,0,0,1.085,3.16,12.734,12.734,0,0,0,4.549,4.614c1.689.837,2.351.908,3.2.765a2.765,2.765,0,0,0,1.795-1.454,2.907,2.907,0,0,0,.154-1.454C16.043,17.259,15.865,17.182,15.6,17.034Z" transform="translate(607.5 4532.75)"/>
  </g>
</svg>
