<svg xmlns="http://www.w3.org/2000/svg" width="64" height="62" viewBox="0 0 64 62">
  <g id="Group_91" data-name="Group 91" transform="translate(-825 -766)">
    <g id="Group_55" data-name="Group 55">
      <path id="Path_360" data-name="Path 360" d="M32,0C49.673,0,64,13.879,64,31S49.673,62,32,62,0,48.121,0,31,14.327,0,32,0Z" transform="translate(825 766)" fill="#468afa" opacity="0.24"/>
      <path id="Icon_open-infinity" data-name="Icon open-infinity" d="M9,0A8.733,8.733,0,0,0,0,9a8.733,8.733,0,0,0,9,9c3.555,0,6.39-2.52,9-5.49C20.61,15.48,23.355,18,27,18a8.733,8.733,0,0,0,9-9,8.733,8.733,0,0,0-9-9c-3.645,0-6.39,2.52-9,5.49C15.39,2.52,12.555,0,9,0ZM9,4.5c1.89,0,3.96,2.115,6.03,4.5-2.07,2.385-4.14,4.5-6.03,4.5A4.226,4.226,0,0,1,4.5,9,4.226,4.226,0,0,1,9,4.5Zm18,0A4.226,4.226,0,0,1,31.5,9,4.226,4.226,0,0,1,27,13.5c-1.935,0-4.005-2.115-6.03-4.5C23.04,6.615,25.065,4.5,27,4.5Z" transform="translate(839 788)" fill="#468afa"/>
    </g>
  </g>
</svg>
