<svg xmlns="http://www.w3.org/2000/svg" width="46.455" height="38.5" viewBox="0 0 46.455 38.5">
  <g id="Group_106" data-name="Group 106" transform="translate(-75.001 -1107.462)">
    <g id="Subtraction_5" data-name="Subtraction 5" transform="translate(89.36 1107.462)" fill="none">
      <path d="M8.5,38.5A28.7,28.7,0,0,1,0,37.235c11.005-.81,20-6.455,22.375-14.047h9.418a16.616,16.616,0,0,1-1.373,3.556,19.529,19.529,0,0,1-5.1,6.119,24.643,24.643,0,0,1-7.562,4.125A28.523,28.523,0,0,1,8.5,38.5ZM32.1,16.771H22.744C21.147,8.51,11.795,2.134,0,1.266A28.7,28.7,0,0,1,8.5,0a28.523,28.523,0,0,1,9.26,1.513,24.636,24.636,0,0,1,7.562,4.125,19.525,19.525,0,0,1,5.1,6.119A16.33,16.33,0,0,1,32.1,16.771Z" stroke="none"/>
      <path d="M 8.849072456359863 36.99819946289062 C 11.77204513549805 36.96291732788086 14.60512733459473 36.48232650756836 17.2752571105957 35.56832504272461 C 19.94161605834961 34.65566635131836 22.33168601989746 33.35281372070312 24.37908554077148 31.69599533081055 C 26.40337562561035 30.05787467956543 27.9887866973877 28.15771484375 29.09130668640137 26.04824447631836 C 29.32475471496582 25.60164451599121 29.53517150878906 25.14731979370117 29.72168922424316 24.68753433227539 L 23.43453788757324 24.68753433227539 C 21.25615882873535 30.20004653930664 15.85971069335938 34.64426803588867 8.849072456359863 36.99819946289062 M 30.22715950012207 15.27095508575439 C 29.94940376281738 14.31001758575439 29.56963348388672 13.36686897277832 29.09127616882324 12.45172500610352 C 27.98872566223145 10.34220504760742 26.40334701538086 8.442165374755859 24.37908554077148 6.804295063018799 C 22.33114624023438 5.147035121917725 19.94111633300781 3.844204902648926 17.27524566650391 2.931954860687256 C 14.60817623138428 2.019016981124878 11.7786283493042 1.538481950759888 8.859207153320312 1.502224564552307 C 16.50847244262695 4.070070266723633 22.1895694732666 9.116274833679199 23.92784118652344 15.27095508575439 L 30.22715950012207 15.27095508575439 M 8.501506805419922 38.50029373168945 C 5.571916580200195 38.50029373168945 2.711596488952637 38.07442474365234 -3.587646460800897e-06 37.23450469970703 C 11.00527667999268 36.42440414428711 19.99716567993164 30.77958488464355 22.37524604797363 23.18753433227539 L 31.79363632202148 23.18753433227539 C 31.48222732543945 24.39999580383301 31.02018547058105 25.59615516662598 30.42065620422363 26.74311447143555 C 29.22258567810059 29.03538513183594 27.50738716125488 31.09408569335938 25.32267570495605 32.86202621459961 C 23.13825607299805 34.62973403930664 20.59414672851562 36.01774597167969 17.76102638244629 36.98749542236328 C 14.82848644256592 37.99131393432617 11.71313667297363 38.50029373168945 8.501506805419922 38.50029373168945 Z M 32.0958366394043 16.77095413208008 L 22.74381637573242 16.77095413208008 C 21.14684677124023 8.510395050048828 11.79464626312256 2.134434938430786 0.0006164123769849539 1.265514969825745 C 2.712586402893066 0.4255949556827545 5.572726249694824 4.95849599246867e-06 8.501506805419922 4.95849599246867e-06 C 11.71313667297363 4.95849599246867e-06 14.82848644256592 0.5089849829673767 17.76102638244629 1.512794971466064 C 20.59357643127441 2.482084989547729 23.13768577575684 3.870095014572144 25.32267570495605 5.638265132904053 C 27.50729560852051 7.405874729156494 29.22250556945801 9.464485168457031 30.42065620422363 11.75691509246826 C 31.25946617126465 13.36165523529053 31.82306671142578 15.04850482940674 32.09577560424805 16.7706241607666 L 32.0958366394043 16.77095413208008 Z" stroke="none" fill="#000"/>
    </g>
    <g id="Subtraction_6" data-name="Subtraction 6" transform="translate(75.001 1112.462)" fill="none">
      <path d="M14.786,28.5a15.172,15.172,0,0,1-5.755-1.12,14.78,14.78,0,0,1-4.7-3.054A14.186,14.186,0,0,1,1.162,19.8a13.82,13.82,0,0,1,0-11.093,14.186,14.186,0,0,1,3.169-4.53,14.78,14.78,0,0,1,4.7-3.054A15.287,15.287,0,0,1,23.4,2.664a14.613,14.613,0,0,1,3.188,3,14.047,14.047,0,0,1,2.134,3.806,7.3,7.3,0,0,0-4.125-1.239c-3.744,0-6.79,2.7-6.79,6.023s3.046,6.023,6.79,6.023a7.3,7.3,0,0,0,4.125-1.239,14.047,14.047,0,0,1-2.134,3.806,14.613,14.613,0,0,1-3.188,3A15.062,15.062,0,0,1,14.786,28.5Z" stroke="none"/>
      <path d="M 14.78611183166504 27.00000190734863 C 17.59246063232422 27.00000190734863 20.27491188049316 26.17090225219727 22.54344177246094 24.60235214233398 C 23.63327217102051 23.84878158569336 24.59589195251465 22.94451141357422 25.40455055236816 21.91465187072754 C 25.45412635803223 21.85151672363281 25.50302124023438 21.78803825378418 25.55131149291992 21.72412109375 C 25.23567199707031 21.75675201416016 24.91596794128418 21.77324104309082 24.59355163574219 21.77324104309082 C 20.02264213562012 21.77324104309082 16.30394172668457 18.3983325958252 16.30394172668457 14.25000190734863 C 16.30394172668457 10.10167217254639 20.02264213562012 6.726761817932129 24.59355163574219 6.726761817932129 C 24.91596794128418 6.726761817932129 25.23568153381348 6.743253231048584 25.55132102966309 6.77588415145874 C 25.50303077697754 6.711966991424561 25.45413589477539 6.648487567901611 25.40456199645996 6.585351943969727 C 24.59589195251465 5.555481910705566 23.63327217102051 4.651221752166748 22.5434513092041 3.897671937942505 C 20.27491188049316 2.329101800918579 17.59247207641602 1.500001907348633 14.78611183166504 1.500001907348633 C 12.98508167266846 1.500001907348633 11.2392110824585 1.839431881904602 9.59696102142334 2.508871793746948 C 8.01344108581543 3.154361963272095 6.591861248016357 4.077891826629639 5.371701240539551 5.253811836242676 C 4.155421257019043 6.425971984863281 3.201191425323486 7.789361953735352 2.535531282424927 9.306081771850586 C 1.848401427268982 10.87170219421387 1.500001430511475 12.53508186340332 1.500001430511475 14.25000190734863 C 1.500001430511475 15.96492195129395 1.848401427268982 17.6283016204834 2.535531282424927 19.19392204284668 C 3.201191425323486 20.71063232421875 4.155411243438721 22.07402229309082 5.371701240539551 23.24620246887207 C 6.591861248016357 24.42211151123047 8.01345157623291 25.34564208984375 9.59696102142334 25.99114227294922 C 11.2392110824585 26.66057205200195 12.98509120941162 27.00000190734863 14.78611183166504 27.00000190734863 M 14.78611183166504 28.50000190734863 C 12.79003143310547 28.50000190734863 10.85365104675293 28.12324142456055 9.03075122833252 27.38017272949219 C 7.270041465759277 26.66244125366211 5.688751220703125 25.63496208190918 4.330811500549316 24.32627105712891 C 2.97287130355835 23.0175724029541 1.906721353530884 21.49362182617188 1.161991357803345 19.7967414855957 C 0.3909513652324677 18.0399227142334 1.376953150611371e-06 16.17373275756836 1.376953150611371e-06 14.25000190734863 C 1.376953150611371e-06 12.32627201080322 0.3909513652324677 10.46008205413818 1.161991357803345 8.703262329101562 C 1.906721353530884 7.006392002105713 2.97287130355835 5.482431888580322 4.330811500549316 4.173741817474365 C 5.688751220703125 2.865041971206665 7.270041465759277 1.837561964988708 9.03075122833252 1.119841933250427 C 10.85365104675293 0.3767619132995605 12.79003143310547 1.9073486328125e-06 14.78611183166504 1.9073486328125e-06 C 17.89869117736816 1.9073486328125e-06 20.87612152099609 0.9211519360542297 23.39654159545898 2.66388201713562 C 24.61018180847168 3.503041982650757 25.68270111083984 4.510741710662842 26.58432197570801 5.658981800079346 C 27.49552154541016 6.819431781768799 28.2135009765625 8.100062370300293 28.71832084655762 9.465301513671875 C 27.52603149414062 8.65516185760498 26.0998706817627 8.226761817932129 24.59355163574219 8.226761817932129 C 20.84975051879883 8.226761817932129 17.80394172668457 10.92877197265625 17.80394172668457 14.25000190734863 C 17.80394172668457 17.57123184204102 20.84975051879883 20.27324104309082 24.59355163574219 20.27324104309082 C 26.09953117370605 20.27324104309082 27.52585220336914 19.84496116638184 28.71832084655762 19.03469276428223 C 28.21328163146973 20.40053176879883 27.49515151977539 21.6810417175293 26.58432197570801 22.84102249145508 C 25.68270111083984 23.98926162719727 24.61018180847168 24.99696159362793 23.39654159545898 25.83613204956055 C 20.87612152099609 27.5788516998291 17.89869117736816 28.50000190734863 14.78611183166504 28.50000190734863 Z" stroke="none" fill="#000"/>
    </g>
  </g>
</svg>
