<svg xmlns="http://www.w3.org/2000/svg" width="21.499" height="24.667" viewBox="0 0 21.499 24.667">
  <path id="Icon_awesome-facebook" data-name="Icon awesome-facebook" d="M22.062,12.971c0-6.855-4.811-12.408-10.75-12.408S.562,6.116.562,12.971c0,6.193,3.931,11.327,9.07,12.258V16.558H6.9V12.971H9.633V10.237c0-3.11,1.6-4.827,4.06-4.827a14.4,14.4,0,0,1,2.407.242V8.7H14.743c-1.335,0-1.752.957-1.752,1.938v2.329h2.981L15.5,16.558h-2.5v8.671C18.131,24.3,22.062,19.164,22.062,12.971Z" transform="translate(-0.563 -0.563)"/>
</svg>
