<svg xmlns="http://www.w3.org/2000/svg" width="21.499" height="24.667" viewBox="0 0 21.499 24.667">
  <path id="Icon_awesome-whatsapp" data-name="Icon awesome-whatsapp" d="M18.279,5.834A9.938,9.938,0,0,0,10.745,2.25C4.871,2.25.091,7.734.091,14.473a13.653,13.653,0,0,0,1.42,6.112L0,26.917l5.648-1.7A9.565,9.565,0,0,0,10.74,26.7h0c5.869,0,10.754-5.484,10.754-12.223a13.208,13.208,0,0,0-3.22-8.644ZM10.745,24.643a8,8,0,0,1-4.511-1.415l-.322-.22-3.35,1.008.893-3.75-.211-.385a11.252,11.252,0,0,1-1.353-5.407c0-5.6,3.974-10.159,8.859-10.159a8.249,8.249,0,0,1,6.258,2.979A10.972,10.972,0,0,1,19.7,14.479C19.7,20.084,15.625,24.643,10.745,24.643ZM15.6,17.034c-.264-.154-1.574-.892-1.819-.991s-.422-.154-.6.154-.686.991-.845,1.2-.312.231-.576.077A7.645,7.645,0,0,1,8.139,13.84c-.274-.54.274-.5.782-1.668a.639.639,0,0,0-.024-.534c-.067-.154-.6-1.657-.821-2.268-.216-.595-.437-.512-.6-.523s-.331-.011-.509-.011a.934.934,0,0,0-.71.38,3.662,3.662,0,0,0-.931,2.549,6.469,6.469,0,0,0,1.085,3.16,12.734,12.734,0,0,0,4.549,4.614c1.689.837,2.351.908,3.2.765a2.765,2.765,0,0,0,1.795-1.454,2.907,2.907,0,0,0,.154-1.454C16.043,17.259,15.865,17.182,15.6,17.034Z" transform="translate(0 -2.25)"/>
</svg>
