<svg xmlns="http://www.w3.org/2000/svg" width="21.752" height="20.519" viewBox="0 0 21.752 20.519">
  <path id="Icon_awesome-arrow-right" data-name="Icon awesome-arrow-right" d="M9.248,4.022l1.078-1.043a1.188,1.188,0,0,1,1.646,0l9.438,9.13a1.1,1.1,0,0,1,0,1.593l-9.438,9.134a1.188,1.188,0,0,1-1.646,0L9.248,21.792a1.1,1.1,0,0,1,.019-1.612l5.85-5.394H1.165A1.144,1.144,0,0,1,0,13.659v-1.5a1.144,1.144,0,0,1,1.165-1.128H15.118L9.268,5.633A1.1,1.1,0,0,1,9.248,4.022Z" transform="translate(0 -2.647)" fill="#fff"/>
</svg>
