<svg xmlns="http://www.w3.org/2000/svg" width="22" height="24.667" viewBox="0 0 22 24.667">
  <path id="Icon_awesome-instagram" data-name="Icon awesome-instagram" d="M11,20.9c-3.121,0-5.639-2.824-5.639-6.324S7.876,8.247,11,8.247s5.639,2.824,5.639,6.324S14.119,20.9,11,20.9Zm0-10.436a3.915,3.915,0,0,0-3.666,4.112A3.912,3.912,0,0,0,11,18.683a3.912,3.912,0,0,0,3.666-4.112A3.915,3.915,0,0,0,11,10.459Zm7.185,10.695a1.324,1.324,0,1,0-1.315,1.475A1.4,1.4,0,0,0,18.182,21.154Zm3.735-1.5a7.814,7.814,0,0,1-1.777,5.168,6.176,6.176,0,0,1-4.609,1.993c-1.816.116-7.259.116-9.075,0a6.166,6.166,0,0,1-4.609-1.987A7.84,7.84,0,0,1,.072,19.662c-.1-2.037-.1-8.141,0-10.177A7.814,7.814,0,0,1,1.849,4.317,6.184,6.184,0,0,1,6.457,2.324c1.816-.116,7.259-.116,9.075,0a6.136,6.136,0,0,1,4.609,1.993,7.866,7.866,0,0,1,1.777,5.168c.1,2.037.1,8.135,0,10.172ZM19.571,7.3a3.966,3.966,0,0,0-2.091-2.345c-1.448-.644-4.883-.5-6.483-.5s-5.04-.143-6.483.5A3.965,3.965,0,0,0,2.423,7.3c-.574,1.624-.442,5.477-.442,7.271s-.128,5.653.442,7.271a3.966,3.966,0,0,0,2.091,2.345c1.448.644,4.883.5,6.483.5s5.04.143,6.483-.5a3.965,3.965,0,0,0,2.091-2.345c.574-1.624.442-5.477.442-7.271S20.146,8.918,19.571,7.3Z" transform="translate(0.005 -2.238)"/>
</svg>
