<svg xmlns="http://www.w3.org/2000/svg" width="202.444" height="51" viewBox="0 0 202.444 51">
  <g id="Group_103" data-name="Group 103" transform="translate(-55.556 -37)">
    <text id="X-Brainle" transform="translate(118 47)" font-size="25" font-family="ProximaNova-Bold, Proxima Nova" font-weight="700" letter-spacing="0.01em"><tspan x="0" y="23">X-Brainle</tspan></text>
    <g id="Group_99" data-name="Group 99" transform="translate(6.008 -0.5)">
      <path id="Subtraction_3" data-name="Subtraction 3" d="M11.945,51A42.59,42.59,0,0,1,0,49.324c15.463-1.073,28.1-8.551,31.438-18.608H44.671a21.265,21.265,0,0,1-1.929,4.71,26.286,26.286,0,0,1-7.163,8.106A35.306,35.306,0,0,1,24.955,49,42.292,42.292,0,0,1,11.945,51ZM45.1,22.216H31.956C29.712,11.273,16.572,2.827,0,1.676A42.591,42.591,0,0,1,11.945,0a42.292,42.292,0,0,1,13.01,2A35.3,35.3,0,0,1,35.579,7.469a26.28,26.28,0,0,1,7.163,8.105A20.792,20.792,0,0,1,45.1,22.216Z" transform="translate(63.341 37.5)" fill="#468afa"/>
      <path id="Subtraction_1" data-name="Subtraction 1" d="M18.711,35.5a19.466,19.466,0,0,1-7.283-1.395A18.736,18.736,0,0,1,5.48,30.3a17.67,17.67,0,0,1-4.01-5.642,16.967,16.967,0,0,1,0-13.818A17.67,17.67,0,0,1,5.48,5.2a18.736,18.736,0,0,1,5.947-3.8A19.611,19.611,0,0,1,29.607,3.318,18.376,18.376,0,0,1,33.64,7.049a17.423,17.423,0,0,1,2.7,4.741,9.341,9.341,0,0,0-5.22-1.543c-4.737,0-8.592,3.366-8.592,7.5s3.854,7.5,8.592,7.5a9.341,9.341,0,0,0,5.22-1.543,17.423,17.423,0,0,1-2.7,4.741,18.376,18.376,0,0,1-4.034,3.731A19.273,19.273,0,0,1,18.711,35.5Z" transform="translate(49.548 45.25)" fill="#468afa"/>
    </g>
  </g>
</svg>
